# xmcd
# 
# Track frame offsets:
#     150
#     13422
#     25797
#     37435
#     51583
#     66240
#     82018
#     97556
#     110134
#     124965
#     138236
#     151757
#     164340
#     178165
#     191788
#     204974
#     219247
#     231727
#     244361
#     256839
#     268192
# 
# Disc length: 3762
# 
# Revision: 1
# Processed by: cddbd v1.5.2PL0 Copyright (c) Steve Scherf et al.
# Submitted via: BonkEnc v1.0.8
# 
DISCID=3f0eb015
DTITLE=Sonny Boy Williamson - Centurion Jazz
DYEAR=2004
DGENRE=Blues
TTITLE0=I´m tired trucking my blues away
TTITLE1=Win the war blues
TTITLE2=Mellow chick swing
TTITLE3=Honey bee blues
TTITLE4=Doggin´ my love around
TTITLE5=Decoration blues
TTITLE6=Beauty parlor
TTITLE7=Little low woman blues
TTITLE8=Sunnyland
TTITLE9=Sugar mama blues
TTITLE10=Skinny woman
TTITLE11=Black gal blues
TTITLE12=My baby i´ve been your slave
TTITLE13=Frigidair blues
TTITLE14=Miss louisa blues
TTITLE15=My little cornelius
TTITLE16=I´m not pleasing you
TTITLE17=Early in the morning
TTITLE18=Good gal blues
TTITLE19=Worried me blues
TTITLE20=you can lead me
EXTD=YEAR: 2004
EXTT0=
EXTT1=
EXTT2=
EXTT3=
EXTT4=
EXTT5=
EXTT6=
EXTT7=
EXTT8=
EXTT9=
EXTT10=
EXTT11=
EXTT12=
EXTT13=
EXTT14=
EXTT15=
EXTT16=
EXTT17=
EXTT18=
EXTT19=
EXTT20=
PLAYORDER=
